<svg width="70" height="107" viewBox="0 0 70 107" fill="none" xmlns="http://www.w3.org/2000/svg">
<path fill-rule="evenodd" clip-rule="evenodd" d="M66.8437 99.355C61.8365 102.988 56.03 104.471 50.0442 105.489C47.5432 105.917 45.0315 106.317 42.5251 106.727H27.1445C22.8332 105.953 18.3968 105.559 14.2431 104.294C10.2036 103.057 6.39244 101.04 2.60302 99.1363C0.683841 98.1655 -0.196915 96.4106 0.0368659 94.1009C0.363071 90.8577 0.493555 82.4351 0.743646 75.4527C0.895875 71.4734 1.08072 67.9635 1.36887 66.1392C2.38011 59.7169 6.18584 55.1668 12.4925 52.8518C14.6889 52.0464 16.9234 51.2996 19.1851 50.7022C20.4899 50.356 21.7186 50.1319 22.9528 50.1319C24.5893 50.1319 26.2366 50.5267 28.0579 51.545C28.993 52.0677 29.9336 52.4784 30.8905 52.7777C32.2931 53.2257 33.7121 53.4391 35.1366 53.4391C36.4686 53.4391 37.806 53.2519 39.1326 52.8844C40.8071 52.4203 42.4708 51.673 44.0855 50.66C44.7868 50.2173 45.7709 49.9346 46.6407 49.9346C46.7984 49.9346 46.9506 49.9452 47.0974 49.9612C49.3211 50.244 51.5393 50.7347 53.6922 51.3535C64.109 54.3454 68.4313 59.4027 69.5186 69.9691C69.6219 70.9992 69.6491 73.0043 69.6382 75.4527C69.6165 81.8056 69.3555 91.1084 69.6382 93.7755C69.9155 96.3359 68.7901 97.9415 66.8437 99.355Z" fill="#FF216E"/>
<path d="M57.3022 22.0365C57.3022 32.6621 49.6364 41.5328 39.4316 43.6073C37.9474 43.9113 36.4142 44.0714 34.8375 44.0714C33.5273 44.0714 32.2388 43.9593 30.9883 43.7513C20.4193 41.959 12.3783 32.9171 12.3783 22.0359C12.3783 21.1505 12.4327 20.281 12.536 19.4275C13.8517 8.48131 23.3388 0 34.8375 0C46.407 0 55.9322 8.57733 57.1663 19.6089C57.2587 20.4042 57.3022 21.215 57.3022 22.0365Z" fill="#FF97AA"/>
</svg>
