<svg width="539" height="398" viewBox="0 0 539 398" fill="none" xmlns="http://www.w3.org/2000/svg">
<g opacity="0.07">
<path d="M494.309 189.195L494.309 189.194C493.905 182.04 491.252 175.443 487.832 168.996C486.163 165.85 484.316 162.749 482.464 159.639L482.328 159.411C480.433 156.228 478.536 153.034 476.837 149.79C475.533 147.334 474.623 144.001 473.86 140.105C473.21 136.788 472.661 133.025 472.074 128.999C471.97 128.287 471.865 127.568 471.758 126.842C470.331 117.142 468.547 106.11 464.578 95.8522C460.612 85.6021 454.476 76.1537 444.361 69.5984C434.245 63.043 420.094 59.3439 400.03 60.6999C392.455 61.2436 387.04 58.8956 382.65 54.746C378.289 50.6249 374.949 44.7337 371.47 38.231L371.469 38.2308C352.471 2.67563 310.304 6.15089 296.276 27.9104L296.274 27.9123C291.085 35.8828 282.912 39.0239 273.878 39.4154C264.856 39.8064 254.922 37.4621 246.082 34.4109C228.797 28.4451 199.296 22.7188 175.871 29.8258C166.709 32.6271 159.968 38.6966 153.547 44.4786C152.839 45.116 152.135 45.7499 151.432 46.3755C144.392 52.6414 137.431 58.1012 127.821 57.3901L127.82 57.3901C107.51 55.8564 92.2636 65.1315 82.998 76.9898C78.3629 82.922 75.2307 89.494 73.7141 95.6693C72.1955 101.853 72.3064 107.594 74.0966 111.893C78.9379 123.48 81.3378 136.53 77.3903 148.54C75.2149 155.176 71.6202 161.095 67.5847 166.744C65.5755 169.556 63.4525 172.308 61.3389 175.047L61.3116 175.083C59.187 177.836 57.0723 180.578 55.08 183.371C47.1003 194.666 40.7709 208.476 44.6965 221.476L44.2179 221.621L44.6965 221.477C46.3581 226.983 49.6873 231.671 53.4331 236.265C54.3919 237.441 55.3798 238.612 56.3727 239.79C59.2397 243.19 62.1493 246.64 64.5252 250.392L64.5254 250.392C73.6187 264.773 74.3762 282.68 75.1172 300.197C75.181 301.705 75.2447 303.21 75.3135 304.71C76.1858 323.71 77.8851 341.845 90.7968 354.608L90.7971 354.608C100.008 363.727 112.15 367.257 125.32 368.933C131.76 369.753 138.425 370.128 145.1 370.503L145.55 370.528C152.367 370.911 159.19 371.306 165.746 372.19C165.746 372.19 165.747 372.19 165.747 372.19L165.68 372.685C177.191 374.212 188.356 377.507 199.542 380.807C209.474 383.737 219.421 386.672 229.64 388.379C255.937 392.72 282.38 388.738 308.904 384.744C326.733 382.06 344.598 379.369 362.48 379.198L494.309 189.195ZM494.309 189.195C494.965 200.718 489.918 210.825 483.522 220.818M494.309 189.195L483.522 220.818M483.522 220.818C481.834 223.455 480.049 226.087 478.255 228.733M483.522 220.818L478.255 228.733M478.255 228.733C473.278 236.075 468.222 243.532 464.928 251.537L478.255 228.733ZM270.305 35.3606L270.299 35.3611C263.979 35.7858 260.99 34.7062 259.561 33.3132C258.141 31.9301 258.123 30.1163 258.123 28.6003C258.123 27.5894 258.569 26.9206 259.327 26.4448C260.118 25.9483 261.25 25.665 262.571 25.5209C263.883 25.3778 265.323 25.377 266.693 25.407C267.088 25.4156 267.48 25.4269 267.862 25.438C268.782 25.4645 269.64 25.4893 270.339 25.4705C272.182 25.4719 273.839 26.0539 275.024 26.9679C276.212 27.883 276.905 29.1088 276.905 30.4152C276.905 31.7162 276.217 32.8879 275.03 33.7785C273.839 34.6711 272.17 35.2585 270.305 35.3606ZM132.701 43.6698L132.709 43.6659L132.716 43.6618C132.936 43.5374 133.296 43.4373 133.79 43.3877C134.276 43.339 134.852 43.3427 135.478 43.3975C136.73 43.5071 138.134 43.8176 139.323 44.2796C140.54 44.7524 141.421 45.3413 141.767 45.9393C141.927 46.2147 141.969 46.4817 141.89 46.7637C141.806 47.061 141.573 47.4305 141.07 47.8576C137.663 50.5696 133.46 52.234 129.166 52.442L129.157 52.4425L129.147 52.4433C127.953 52.5469 126.89 52.4271 126.123 51.8056L126.116 51.8004L126.11 51.7955C125.686 51.4745 125.43 50.9304 125.397 50.3259C125.365 49.7224 125.56 49.1169 125.963 48.697C126.447 48.1938 127.165 47.9149 127.957 47.6076C128.018 47.5837 128.08 47.5597 128.142 47.5354L128.153 47.5311L128.164 47.5262C129.619 46.8768 131.169 45.9733 132.071 44.5635L132.088 44.5378L132.101 44.5103C132.323 44.048 132.465 43.7928 132.701 43.6698ZM119.521 52.4604L119.501 52.4663L119.481 52.4738C119.028 52.6453 118.535 52.6535 117.994 52.5677C117.539 52.4956 117.086 52.3645 116.613 52.2275C116.514 52.1988 116.414 52.1698 116.313 52.1411C115.995 52.0463 115.658 51.8867 115.435 51.695C115.22 51.51 115.192 51.3764 115.217 51.2694C115.235 51.2207 115.275 51.1592 115.362 51.0776C115.452 50.9932 115.564 50.9128 115.709 50.8121C117.251 50.0665 118.822 49.5893 120.09 50.4696C120.406 50.6889 120.541 50.8986 120.593 51.0647C120.645 51.2292 120.632 51.4034 120.555 51.5862C120.391 51.9766 119.958 52.3365 119.521 52.4604ZM56.7408 143.067L56.7441 143.065C58.6568 142.094 60.1265 142.065 61.2218 142.59C62.3313 143.121 63.1879 144.283 63.7291 145.974C64.0005 146.822 64.4103 147.637 64.8496 148.426C65.0499 148.785 65.2481 149.126 65.4444 149.463C65.6952 149.893 65.9428 150.319 66.187 150.77C67.0329 152.335 67.6338 153.871 67.3999 155.576L67.3993 155.58C67.2133 157.033 66.2741 158.428 65.2403 159.828C65.0051 160.137 64.7709 160.448 64.5365 160.76C62.8114 163.051 61.0751 165.357 58.8764 167.099C57.7368 167.962 56.634 168.702 55.3903 168.702C54.3006 168.702 53.1728 168.226 52.2016 167.518C49.8481 165.782 48.1854 163.024 47.893 160.078L47.8915 160.067C47.4019 156.089 49.26 152.164 51.5081 148.544C52.9423 146.304 54.519 144.173 56.7408 143.067ZM474.131 255.811L474.134 255.806C474.555 255.016 475.422 254.537 476.448 254.11C478.192 253.384 480.34 252.864 482.316 252.76C484.312 252.656 486.013 252.981 486.992 253.808C487.383 254.18 487.62 254.742 487.717 255.499C487.814 256.261 487.763 257.168 487.625 258.157C487.487 259.143 487.266 260.184 487.039 261.209C487.002 261.378 486.964 261.546 486.926 261.714C486.738 262.557 486.554 263.382 486.423 264.128C486.214 265.216 486.024 266.148 485.405 266.886L485.4 266.892L485.395 266.898C484.601 267.908 483.27 268.304 481.812 268.738L481.75 268.756L481.747 268.757C480.527 269.128 479.198 269.458 477.949 269.483C476.708 269.508 475.6 269.232 474.755 268.446C473.488 267.218 473.27 265.288 473.27 263.364C473.27 261.569 473.372 259.88 473.575 258.082L473.578 258.054V258.026C473.578 257.25 473.764 256.48 474.131 255.811ZM334.605 396.893L334.594 396.888L334.583 396.883C333.029 396.254 332.293 394.229 333.003 392.647C333.269 392.096 333.718 391.622 334.238 391.08C337.495 387.896 341.859 386.741 346.519 386.597C351.185 386.452 356.079 387.321 360.338 388.123L360.345 388.124C360.932 388.226 361.53 388.399 361.994 388.675C362.446 388.944 362.729 389.284 362.804 389.726C362.834 390.038 362.72 390.367 362.47 390.718C362.217 391.074 361.851 391.412 361.458 391.719C354.845 396.727 345.897 397.06 337.362 397.167L337.339 397.167L337.316 397.17C336.313 397.274 335.401 397.261 334.605 396.893ZM172.886 377.557L172.887 377.557C178.778 378.404 184.74 380.091 190.907 384.618C192.784 386 193.617 387.274 193.786 388.294C193.947 389.267 193.522 390.131 192.548 390.795C190.549 392.159 186.386 392.526 181.649 390.69C176.523 388.661 171.476 386.729 166.114 385.333C165.934 385.286 165.657 385.219 165.305 385.135C164.005 384.821 161.684 384.263 159.479 383.553C158.078 383.102 156.755 382.599 155.791 382.075C155.307 381.812 154.939 381.556 154.697 381.317C154.451 381.072 154.393 380.9 154.393 380.799C154.393 379.448 155.012 378.527 156.09 377.882C157.202 377.217 158.802 376.852 160.696 376.707C164.476 376.418 169.19 377.023 172.886 377.557Z" fill="#FF0000" stroke="black"/>
</g>
<g opacity="0.51">
<path d="M361.858 302.76C359.5 298.063 364.933 293.045 369.955 292.084C374.978 291.123 380.615 291.871 384.51 288.561C389.84 284.184 389.533 274.683 395.375 271.159C400.09 268.384 406.343 271.053 411.263 268.811C417.413 266.035 419.155 257.067 425.305 254.078C430.123 251.623 436.478 254.398 438.938 259.309C441.398 264.22 440.27 270.626 436.888 275.003C434.223 278.312 430.225 280.768 428.585 284.718C426.023 291.017 430.123 298.597 427.663 305.002C423.255 316.746 402.345 313.223 398.655 325.286C397.835 327.955 398.143 330.838 397.938 333.72C397.323 342.048 391.685 349.307 384.715 353.471C377.745 357.634 369.545 359.022 361.55 359.663C358.27 359.876 354.785 359.983 351.915 358.382C349.148 356.887 347.303 354.218 345.765 351.336C336.13 333.293 332.133 309.593 361.858 302.76Z" fill="#FFBE55"/>
</g>
<g opacity="0.51">
<path d="M205.75 286.426C209.03 280.874 202.88 274.255 196.832 272.654C190.785 271.053 183.917 271.373 179.305 266.996C173.257 261.124 174.385 249.487 167.517 244.683C161.982 240.84 154.192 243.509 148.247 240.306C140.867 236.356 139.637 225.146 132.462 220.876C126.722 217.459 118.727 220.128 115.242 226C111.757 231.872 112.577 239.772 116.37 245.43C119.342 249.808 123.955 253.117 125.697 258.135C128.362 266.035 122.622 275.003 124.98 283.01C129.387 297.849 155.32 295.501 158.6 310.66C159.317 314.077 158.702 317.493 158.702 321.016C158.702 331.265 164.955 340.766 173.155 346.531C181.355 352.296 191.195 354.859 200.932 356.353C204.93 356.994 209.132 357.421 212.822 355.713C216.307 354.218 218.87 351.015 221.022 347.706C234.45 326.247 241.42 297.636 205.75 286.426Z" fill="#FFBE55"/>
</g>
<path d="M420.18 29.7767L413.005 32.339L409.93 23.0509C404.19 5.86266 386.047 -3.31864 369.545 2.65988C353.042 8.6384 344.227 27.5348 349.967 44.723L353.042 54.0111L345.867 56.5733C340.23 58.6017 337.257 65.0073 339.205 70.879L359.397 131.625C361.345 137.497 367.597 140.7 373.132 138.671L447.342 111.875C452.98 109.846 456.055 103.334 454.107 97.4621L433.915 36.7161C432.07 30.8443 425.92 27.6415 420.18 29.7767ZM363.6 39.7053C360.422 30.3105 365.24 19.9549 374.26 16.6453C383.28 13.3358 393.222 18.3535 396.4 27.8551L399.475 37.1431L366.675 48.9934L363.6 39.7053ZM406.65 95.1134L411.775 110.593C411.98 111.234 411.57 111.875 410.955 112.195L403.78 114.757C403.267 114.971 402.55 114.65 402.345 114.01L397.22 98.5297C391.685 98.3162 386.56 94.6864 384.612 88.8146C382.152 81.3415 385.945 73.121 393.12 70.452C400.295 67.8898 408.187 71.8399 410.75 79.313C412.697 85.1848 410.852 91.3768 406.65 95.1134Z" fill="#D97C0B"/>
<path d="M335.823 362.332H219.69C207.698 362.332 198.062 352.19 198.062 339.806V59.349C198.062 46.8581 207.8 36.8228 219.69 36.8228H335.72C347.713 36.8228 357.348 46.9649 357.348 59.349V339.806C357.45 352.19 347.713 362.332 335.823 362.332Z" fill="#044389"/>
<path d="M334.9 350.802H220.612C212.207 350.802 205.443 343.756 205.443 335.001V62.1246C205.443 53.3704 212.207 46.3242 220.612 46.3242H334.9C343.305 46.3242 350.07 53.3704 350.07 62.1246V335.001C350.07 343.756 343.305 350.802 334.9 350.802Z" fill="#F7F7F7"/>
<path d="M321.062 46.3245H311.632C308.762 46.3245 306.405 48.78 306.405 51.7693V55.6126C306.405 58.6019 304.047 61.0573 301.177 61.0573H259.255C256.385 61.0573 254.027 58.6019 254.027 55.6126V51.7693C254.027 48.78 251.67 46.3245 248.8 46.3245H222.047V43.5488H321.062V46.3245Z" fill="#044389"/>
<path opacity="0.17" d="M275.757 174.649C287.306 174.649 296.667 164.898 296.667 152.87C296.667 140.842 287.306 131.091 275.757 131.091C264.209 131.091 254.847 140.842 254.847 152.87C254.847 164.898 264.209 174.649 275.757 174.649Z" fill="#044389"/>
<mask id="mask0_55_11" style="mask-type:luminance" maskUnits="userSpaceOnUse" x="254" y="131" width="43" height="44">
<path d="M275.757 174.649C287.306 174.649 296.667 164.898 296.667 152.87C296.667 140.842 287.306 131.091 275.757 131.091C264.209 131.091 254.847 140.842 254.847 152.87C254.847 164.898 264.209 174.649 275.757 174.649Z" fill="white"/>
</mask>
<g mask="url(#mask0_55_11)">
<path d="M283.855 147.852C283.855 152.55 280.267 156.286 275.757 156.286C271.247 156.286 267.66 152.55 267.66 147.852C267.66 143.155 271.247 139.418 275.757 139.418C280.267 139.418 283.855 143.155 283.855 147.852ZM287.955 182.549V170.485C287.955 163.76 282.727 158.208 276.167 158.208H275.245C268.787 158.208 263.457 163.653 263.457 170.485V182.549C263.457 184.471 264.892 185.965 266.737 185.965H284.675C286.52 185.965 287.955 184.471 287.955 182.549Z" fill="#044389"/>
</g>
<path opacity="0.17" d="M325.88 199.524H225.635C221.022 199.524 217.332 195.68 217.332 190.876C217.332 186.072 221.022 182.229 225.635 182.229H325.88C330.492 182.229 334.182 186.072 334.182 190.876C334.182 195.574 330.492 199.524 325.88 199.524Z" fill="#044389"/>
<path d="M322.395 193.118H229.12C227.89 193.118 226.967 192.157 226.967 190.876C226.967 189.595 227.89 188.634 229.12 188.634H322.395C323.625 188.634 324.547 189.595 324.547 190.876C324.547 192.051 323.625 193.118 322.395 193.118Z" fill="#044389"/>
<path opacity="0.17" d="M325.982 230.484H225.737C221.125 230.484 217.435 226.641 217.435 221.837C217.435 217.032 221.125 213.189 225.737 213.189H325.982C330.595 213.189 334.285 217.032 334.285 221.837C334.285 226.641 330.492 230.484 325.982 230.484Z" fill="#044389"/>
<path d="M228.3 224.292C227.07 224.292 226.147 223.331 226.147 222.05C226.147 220.769 227.07 219.808 228.3 219.808C229.53 219.808 230.452 220.769 230.452 222.05C230.452 223.331 229.427 224.292 228.3 224.292ZM236.91 222.05C236.91 220.769 235.987 219.808 234.757 219.808C233.527 219.808 232.605 220.769 232.605 222.05C232.605 223.331 233.527 224.292 234.757 224.292C235.885 224.292 236.91 223.331 236.91 222.05ZM243.265 222.05C243.265 220.769 242.342 219.808 241.112 219.808C239.882 219.808 238.96 220.769 238.96 222.05C238.96 223.331 239.882 224.292 241.112 224.292C242.342 224.292 243.265 223.331 243.265 222.05ZM249.722 222.05C249.722 220.769 248.8 219.808 247.57 219.808C246.34 219.808 245.417 220.769 245.417 222.05C245.417 223.331 246.34 224.292 247.57 224.292C248.8 224.292 249.722 223.331 249.722 222.05ZM256.18 222.05C256.18 220.769 255.257 219.808 254.027 219.808C252.797 219.808 251.875 220.769 251.875 222.05C251.875 223.331 252.797 224.292 254.027 224.292C255.257 224.292 256.18 223.331 256.18 222.05ZM262.637 222.05C262.637 220.769 261.715 219.808 260.485 219.808C259.255 219.808 258.332 220.769 258.332 222.05C258.332 223.331 259.255 224.292 260.485 224.292C261.612 224.292 262.637 223.331 262.637 222.05ZM269.095 222.05C269.095 220.769 268.172 219.808 266.942 219.808C265.712 219.808 264.79 220.769 264.79 222.05C264.79 223.331 265.712 224.292 266.942 224.292C268.07 224.292 269.095 223.331 269.095 222.05Z" fill="#044389"/>
<path d="M139.33 330.518C139.33 330.518 137.178 342.902 136.665 345.037C136.255 346.745 135.025 348.026 133.795 349.307C133.385 349.734 133.078 350.589 132.873 351.229C132.668 351.763 132.77 352.403 133.078 352.937C138.51 362.012 149.888 363.72 149.99 362.973C150.195 361.585 148.043 359.236 145.583 358.275C143.123 357.421 141.278 355.072 140.663 352.403C140.15 350.268 140.15 348.026 140.765 345.891L143.43 336.39L139.33 330.518Z" fill="#B97A59"/>
<path d="M132.668 331.906L135.333 344.396C136.153 348.24 135.64 352.19 133.898 355.713C132.873 357.635 133.795 360.09 135.743 360.837C142.2 363.186 154.603 367.777 155.115 367.243C157.985 364.788 150.503 360.624 144.968 356.354C141.278 353.471 139.843 339.806 139.535 329.45L133.59 331.052C133.18 331.052 132.77 331.372 132.668 331.906Z" fill="#B97A59"/>
<path d="M143.738 359.877C146.403 360.838 149.273 361.051 151.938 361.478C152.245 361.478 152.553 361.692 152.758 361.798C155.32 363.827 156.653 365.962 155.115 367.243C154.5 367.777 139.843 362.332 134.205 360.304C132.975 359.877 132.463 358.382 133.078 357.208L134.205 355.073C137.178 356.994 140.355 358.702 143.738 359.877Z" fill="#0B4870"/>
<path d="M135.435 204.008C128.67 206.464 124.468 216.072 127.543 225.04C129.285 230.271 137.793 248.313 146.095 262.299C149.273 267.637 149.683 274.362 146.915 279.914C146.505 280.768 146.095 281.729 145.788 282.69C144.455 287.387 140.97 313.863 139.228 331.479C140.048 333.507 141.79 336.069 143.533 336.603C149.478 320.696 158.498 292.085 159.933 287.067C160.753 284.291 161.573 281.195 162.085 278.206C166.185 269.238 156.55 226.214 153.68 217.78C150.605 208.919 142.098 201.553 135.435 204.008Z" fill="#0B4870"/>
<path d="M139.638 154.151C145.638 154.151 150.503 147.603 150.503 139.525C150.503 131.448 145.638 124.899 139.638 124.899C133.637 124.899 128.773 131.448 128.773 139.525C128.773 147.603 133.637 154.151 139.638 154.151Z" fill="#0B4870"/>
<path d="M137.075 141.02C136.87 132.907 130.618 126.074 122.828 125.647C115.96 125.22 110.015 129.597 107.76 135.896C106.94 138.138 104.89 139.526 102.635 139.526C101.712 139.526 100.79 139.632 99.765 139.846C94.1275 141.02 89.6175 146.038 89.105 152.123C88.5925 157.568 91.0525 162.372 94.9475 165.148C96.5875 166.322 97.6125 168.244 97.8175 170.379C99.15 179.987 107.555 187.14 117.19 185.966C125.39 185.005 132.052 177.959 132.77 169.311C133.18 164.08 131.437 159.169 128.362 155.539C133.59 153.084 137.177 147.426 137.075 141.02Z" fill="#0B4870"/>
<path d="M139.638 120.096C139.638 120.096 145.788 124.152 144.968 129.49C144.968 129.49 148.248 127.035 148.965 118.814C149.58 113.049 139.638 120.096 139.638 120.096Z" fill="#0B4870"/>
<path d="M149.58 148.6C152.86 150.308 156.14 151.696 159.523 152.55C162.905 153.404 166.39 153.404 169.978 152.87C173.668 152.337 177.46 151.269 181.56 150.522C185.66 149.774 189.965 149.561 193.963 150.201C194.68 150.308 195.193 151.055 195.09 151.803C194.988 152.443 194.475 152.977 193.86 152.977C189.965 153.191 186.378 153.938 182.688 155.326C179.1 156.607 175.41 158.315 171.31 159.596C167.21 160.877 162.598 161.411 158.19 160.877C153.783 160.343 149.58 159.062 145.583 157.354C143.225 156.393 141.995 153.511 142.918 151.055C143.84 148.6 146.608 147.319 148.965 148.28C149.068 148.28 149.17 148.387 149.273 148.387L149.58 148.6Z" fill="#B97A59"/>
<path d="M146.505 181.055C148.965 173.368 153.885 157.034 153.475 151.803C153.168 148.387 150.503 145.824 147.223 145.824H125.8C122.315 145.824 119.343 148.707 119.24 152.444C119.035 158.849 121.905 173.475 123.545 181.162H146.505V181.055Z" fill="#FF216E"/>
<path d="M139.433 332.013C139.74 331.799 139.945 331.372 139.945 330.945C139.535 314.611 138.51 293.793 138.203 289.843C138.203 289.416 138.1 288.989 137.998 288.455C141.38 269.131 141.893 227.709 142.2 220.449C142.61 210.948 137.075 200.165 130.003 199.738C122.828 199.418 115.14 207.104 112.885 215.859C111.348 221.624 117.19 252.37 123.545 274.683C124.878 279.38 125.083 284.291 124.365 289.095C123.853 292.405 123.75 295.928 123.955 298.49C124.263 302.44 128.465 318.347 132.463 332.119C132.565 332.546 132.873 332.867 133.283 332.867C135.435 333.401 137.485 333.294 139.433 332.013Z" fill="#0B4870"/>
<path d="M121.188 190.77C122.315 187.567 122.623 184.044 122.11 180.735C121.085 172.835 119.138 158.102 119.343 151.803C119.445 148.387 122.11 145.824 125.288 145.824H128.465C129.695 148.707 132.258 150.949 136.153 150.949C140.15 150.949 142.61 148.707 143.84 145.824H146.813C143.635 152.977 144.763 162.479 150.298 168.03C149.273 171.874 148.35 175.61 147.735 178.706C146.813 182.87 147.223 187.247 148.863 191.197C151.63 198.03 153.783 208.919 153.065 213.296C130.618 219.915 115.14 208.172 115.14 208.172L121.188 190.77Z" fill="#FF216E"/>
<path d="M139.638 147.319L130.003 146.252L133.078 135.255L139.33 136.003L139.638 147.319Z" fill="#B97A59"/>
<path d="M139.33 136.002L133.078 135.148L132.155 138.565C133.59 140.166 135.333 143.796 137.588 143.796C138.305 143.796 138.92 143.582 139.535 143.155L139.33 136.002Z" fill="#AA6B4F"/>
<path d="M139.535 141.34C137.383 141.34 135.128 140.273 131.95 137.39C130.105 135.789 128.773 132.906 128.773 130.878V120.095H144.66C144.66 120.095 145.89 125.86 144.66 131.518C143.84 135.789 141.175 141.34 139.535 141.34Z" fill="#B97A59"/>
<path d="M131.438 128.85C131.438 130.985 130.515 132.693 129.285 132.693C128.055 132.693 126.825 129.917 126.825 127.889C126.825 125.754 128.158 125.113 129.285 125.113C130.515 125.006 131.438 126.715 131.438 128.85Z" fill="#B97A59"/>
<path d="M126.825 121.376C126.825 118.067 129.49 115.291 132.668 115.291H137.998C139.535 115.291 141.073 114.864 142.303 114.117C144.148 113.049 146.608 113.369 147.838 115.184C149.273 117.106 149.888 119.775 146.3 122.231C144.558 123.405 141.995 122.124 140.253 122.658C140.15 122.658 140.048 122.658 139.945 122.658H135.23C133.59 122.658 132.36 124.045 132.258 125.754C132.258 126.821 131.335 127.675 130.31 127.675H130.105L129.388 125.113L126.723 128.85V121.376H126.825Z" fill="#0B4870"/>
<path d="M199.6 149.027C199.6 149.027 197.038 154.258 195.295 153.938C193.553 153.618 192.323 153.191 192.63 150.415C192.938 147.746 194.578 144.116 195.91 142.194C197.243 140.273 200.933 138.031 201.548 138.031C203.495 138.138 200.625 141.34 199.293 143.048C197.96 144.65 196.628 146.678 197.55 147.105C198.473 147.532 200.83 144.223 202.06 144.33C203.29 144.436 199.6 149.027 199.6 149.027Z" fill="#B97A59"/>
<path d="M143.533 119.882C143.02 122.337 143.738 123.725 136.05 127.569C128.26 131.412 125.903 129.81 123.443 133.867C123.443 133.867 124.468 127.035 128.773 124.686C133.078 122.337 140.458 120.843 142.815 115.398C142.815 115.398 143.84 118.28 143.533 119.882Z" fill="#0B4870"/>
<path d="M125.8 155.86C125.39 156.18 125.083 156.393 124.775 156.714C124.468 156.927 124.16 157.141 123.853 157.354C123.238 157.781 122.623 158.208 122.008 158.529C120.778 159.276 119.445 159.916 118.113 160.557C115.448 161.731 112.578 162.479 109.708 163.012C103.865 163.867 97.92 163.012 92.59 160.877C89.925 159.81 87.465 158.422 85.1075 156.82C82.75 155.219 80.5975 153.404 78.5475 151.483C74.55 147.639 71.065 143.155 68.0925 138.565C67.785 138.031 67.8875 137.39 68.4 137.07C68.81 136.75 69.425 136.857 69.7325 137.284C73.32 141.34 77.01 145.077 81.11 148.28C85.21 151.376 89.6175 154.045 94.3325 155.433C96.69 156.073 99.0475 156.607 101.405 156.714C103.763 156.82 106.12 156.607 108.478 156.18C110.835 155.753 113.09 154.899 115.243 153.938C116.268 153.404 117.395 152.87 118.42 152.23C118.933 151.91 119.445 151.589 119.855 151.269C120.06 151.055 120.368 150.949 120.573 150.735L121.188 150.308L121.393 150.095C122.93 148.814 125.185 149.134 126.415 150.735C127.543 152.337 127.338 154.579 125.8 155.86Z" fill="#B97A59"/>
<path d="M141.995 120.416C141.995 120.416 142.303 128.743 149.273 132.693C149.273 132.693 146.198 126.394 146.403 122.337C146.608 118.174 141.585 117.533 141.995 120.416Z" fill="#0B4870"/>
<path d="M131.13 356.354C130.618 355.927 130.413 355.073 130.72 354.432C131.028 353.898 131.745 352.51 132.258 351.443C132.463 351.016 133.078 350.909 133.385 351.336C136.87 356.14 141.688 359.343 147.12 358.916C149.068 359.77 150.708 362.226 150.503 363.4C150.503 363.613 148.145 364.254 145.378 363.293C133.283 359.13 131.13 356.354 131.13 356.354Z" fill="#0B4870"/>
<path d="M70.1426 133.654C70.1426 133.654 73.525 138.351 72.5 139.953C71.475 141.554 70.45 142.408 68.2975 140.914C66.0425 139.419 63.685 136.323 62.5575 134.081C61.43 131.839 61.2251 127.462 61.4301 126.928C62.4551 125.113 63.9925 129.277 64.8125 131.305C65.6325 133.334 66.7601 135.469 67.5801 134.722C68.4001 134.081 66.4525 130.344 67.17 129.277C67.8875 128.102 70.1426 133.654 70.1426 133.654Z" fill="#B97A59"/>
<path d="M522.987 393.506H16.6375C7.8225 393.506 0.75 386.139 0.75 376.958C0.75 367.777 7.8225 360.41 16.6375 360.41H522.987C531.802 360.41 538.875 367.777 538.875 376.958C538.875 386.139 531.802 393.506 522.987 393.506Z" fill="#FFFAFA"/>
<path d="M126.62 77.3914L119.957 69.8115L38.3675 147.532C32.73 143.796 25.555 142.835 18.79 145.504C7.515 149.988 1.87749 163.119 6.28499 174.863C10.6925 186.606 23.1975 192.478 34.4725 187.887C45.7475 183.403 51.385 170.272 46.9775 158.528C46.67 157.674 46.26 156.82 45.85 155.966L107.657 95.8608L115.037 103.441L122.418 95.6473L116.575 89.562L118.83 86.7863L124.878 92.4445L130.003 86.3592L123.647 80.2739L126.62 77.3914ZM31.705 180.414C24.4275 183.297 16.125 179.56 13.3575 171.873C10.59 164.293 14.1775 155.646 21.5575 152.763C28.835 149.881 37.1375 153.618 39.905 161.304C42.6725 168.991 38.9825 177.532 31.705 180.414Z" fill="#D97C0B"/>
</svg>
